<?xml version="1.0" encoding="UTF-8" standalone="no"?>
<!-- Created with Inkscape (http://www.inkscape.org/) -->

<svg
   xmlns:dc="http://purl.org/dc/elements/1.1/"
   xmlns:cc="http://creativecommons.org/ns#"
   xmlns:rdf="http://www.w3.org/1999/02/22-rdf-syntax-ns#"
   xmlns:svg="http://www.w3.org/2000/svg"
   xmlns="http://www.w3.org/2000/svg"
   xmlns:xlink="http://www.w3.org/1999/xlink"
   version="1.1"
   width="2199.969"
   height="1753.877"
   id="svg2">
  <defs
     id="defs4" />
  <g
     transform="translate(-27.1863,661.34891)"
     id="layer1"
     style="display:none">
    <image
       xlink:href="file:///C:/Users/JER/Pictures/MACMapgross.jpg"
       x="0"
       y="-637.63782"
       width="2240"
       height="1690"
       id="image2993" />
  </g>
  <path
     d="M 783.34671,425.85395 C 934.77412,354.59452 1252.919,355.30128 1402.6325,423.71109"
     id="path4125"
     style="color:#000000;fill:none;stroke:#000000;stroke-width:2;stroke-linecap:butt;stroke-linejoin:miter;stroke-opacity:1;display:inline" />
  <path
     d="M 783.34671,515.43548 C 934.77412,444.17605 1252.919,444.88281 1402.6325,513.29262"
     id="path4125-3"
     style="color:#000000;fill:none;stroke:#000000;stroke-width:2;stroke-linecap:butt;stroke-linejoin:miter;stroke-opacity:1;display:inline" />
  <path
     d="M 783.34671,455.71449 C 934.77412,384.45506 1252.919,385.16182 1402.6325,453.57163"
     id="path4125-4"
     style="color:#000000;fill:none;stroke:#000000;stroke-width:2;stroke-linecap:butt;stroke-linejoin:miter;stroke-opacity:1;display:inline" />
  <path
     d="M 783.34673,485.57502 C 934.77414,414.31559 1252.919,415.02235 1402.6325,483.43216"
     id="path4125-1"
     style="color:#000000;fill:none;stroke:#000000;stroke-width:2;stroke-linecap:butt;stroke-linejoin:miter;stroke-opacity:1;display:inline" />
  <path
     d="m 1144.5907,150.60434 0.3571,-55.15763 c 143.3701,-2.24462 248.3067,32.15851 355.2165,65.65992 l 0,102.02541 153.0382,-1.51523 0,-164.65487 475.2767,0 0,810.14234 -309.6117,0 -148.9975,0 -32.3249,0 0,-22.72843 m -137.3808,-495.9849 0,518.20826 -814.3494,0 0,-516.0654"
     id="path3005"
     style="fill:none;stroke:#000000;stroke-width:15;stroke-linecap:butt;stroke-linejoin:miter;stroke-opacity:1" />
  <path
     d="m 1423.1708,223.71109 0,-28.57143 c -59.1056,-22.21709 -218.9249,-47.65823 -278.5801,-48.17517"
     id="path3775"
     style="color:#000000;fill:none;stroke:#000000;stroke-width:7;stroke-linecap:butt;stroke-linejoin:miter;stroke-opacity:1;display:inline" />
  <path
     d="m 1179.7167,260.85395 a 7.5,7.5 0 0 1 -15,0 7.5,7.5 0 1 1 15,0 z"
     id="path3828-4"
     style="color:#000000;fill:#000000;fill-opacity:1;stroke:none;stroke-width:7;display:inline" />
  <path
     d="m 1338.1709,260.85395 a 7.5,7.5 0 0 1 -15,0 7.5,7.5 0 1 1 15,0 z"
     id="path3828-8"
     style="color:#000000;fill:#000000;fill-opacity:1;stroke:none;stroke-width:7;display:inline" />
  <path
     d="m 1823.3652,280.08908 a 7.5,7.5 0 0 1 -15,0 7.5,7.5 0 1 1 15,0 z"
     id="path3828-8-8"
     style="color:#000000;fill:#000000;fill-opacity:1;stroke:none;stroke-width:7;display:inline" />
  <path
     d="m 1823.3652,593.3801 a 7.5,7.5 0 0 1 -15,0 7.5,7.5 0 1 1 15,0 z"
     id="path3828-8-2"
     style="color:#000000;fill:#000000;fill-opacity:1;stroke:none;stroke-width:7;display:inline" />
  <path
     d="m 1823.3652,436.73459 a 7.5,7.5 0 0 1 -15,0 7.5,7.5 0 1 1 15,0 z"
     id="path3828-8-4"
     style="color:#000000;fill:#000000;fill-opacity:1;stroke:none;stroke-width:7;display:inline" />
  <path
     d="m 1823.3652,750.0255 a 7.5,7.5 0 0 1 -15,0 7.5,7.5 0 1 1 15,0 z"
     id="path3828-8-5"
     style="color:#000000;fill:#000000;fill-opacity:1;stroke:none;stroke-width:7;display:inline" />
  <path
     d="m 1815.8652,123.44358 0,-26.48181"
     id="path3938"
     style="color:#000000;fill:#000000;fill-opacity:1;stroke:#000000;stroke-width:15;stroke-linecap:butt;stroke-linejoin:miter;stroke-opacity:1;display:inline" />
  <path
     d="m 1986.028,280.08908 a 7.5,7.5 0 0 1 -15,0 7.5,7.5 0 1 1 15,0 z"
     id="path3828-8-8-2"
     style="color:#000000;fill:#000000;fill-opacity:1;stroke:none;stroke-width:7;display:inline" />
  <path
     d="m 1986.028,593.3801 a 7.5,7.5 0 0 1 -15,0 7.5,7.5 0 1 1 15,0 z"
     id="path3828-8-2-3"
     style="color:#000000;fill:#000000;fill-opacity:1;stroke:none;stroke-width:7;display:inline" />
  <path
     d="m 1986.028,436.73459 a 7.5,7.5 0 0 1 -15,0 7.5,7.5 0 1 1 15,0 z"
     id="path3828-8-4-2"
     style="color:#000000;fill:#000000;fill-opacity:1;stroke:none;stroke-width:7;display:inline" />
  <path
     d="m 1986.028,750.0255 a 7.5,7.5 0 0 1 -15,0 7.5,7.5 0 1 1 15,0 z"
     id="path3828-8-5-2"
     style="color:#000000;fill:#000000;fill-opacity:1;stroke:none;stroke-width:7;display:inline" />
  <path
     d="m 1978.528,123.44358 0,-26.48181"
     id="path3938-1"
     style="color:#000000;fill:#000000;fill-opacity:1;stroke:#000000;stroke-width:15;stroke-linecap:butt;stroke-linejoin:miter;stroke-opacity:1;display:inline" />
  <path
     d="m 1660.7025,436.73459 -23.4099,0 0,156.64551 23.4099,0"
     id="path4026"
     style="fill:none;stroke:#000000;stroke-width:15;stroke-linecap:butt;stroke-linejoin:miter;stroke-opacity:1" />
  <path
     d="m 1660.7025,750.02554 -30.4098,0"
     id="path4045"
     style="color:#000000;fill:#000000;fill-opacity:1;stroke:#000000;stroke-width:15;stroke-linecap:butt;stroke-linejoin:miter;stroke-opacity:1;display:inline" />
  <path
     d="m 1823.3652,436.73459 147.6628,0"
     id="path4053"
     style="fill:none;stroke:#000000;stroke-width:10;stroke-linecap:butt;stroke-linejoin:miter;stroke-opacity:1" />
  <path
     d="m 1664.2739,750.02554 144.0913,0"
     id="path4061"
     style="fill:none;stroke:#000000;stroke-width:10;stroke-linecap:butt;stroke-linejoin:miter;stroke-opacity:1" />
  <path
     d="m 1823.3652,750.02554 69.0914,0"
     id="path4069"
     style="fill:none;stroke:#000000;stroke-width:10;stroke-linecap:butt;stroke-linejoin:miter;stroke-opacity:1" />
  <path
     d="m 2091.3561,907.10428 0,-810.14234"
     id="path4077"
     style="color:#000000;fill:#000000;fill-opacity:1;stroke:#000000;stroke-width:7;stroke-linecap:butt;stroke-linejoin:miter;stroke-opacity:1;display:inline" />
  <path
     d="m 2091.3561,280.08908 37.1231,0"
     id="path4085"
     style="color:#000000;fill:#000000;fill-opacity:1;stroke:#000000;stroke-width:15;stroke-linecap:butt;stroke-linejoin:miter;stroke-opacity:1;display:inline" />
  <path
     d="m 2091.3561,436.73459 37.1231,0"
     id="path4087"
     style="color:#000000;fill:#000000;fill-opacity:1;stroke:#000000;stroke-width:15;stroke-linecap:butt;stroke-linejoin:miter;stroke-opacity:1;display:inline" />
  <path
     d="m 2091.3561,593.3801 37.1231,0"
     id="path4089"
     style="color:#000000;fill:#000000;fill-opacity:1;stroke:#000000;stroke-width:15;stroke-linecap:butt;stroke-linejoin:miter;stroke-opacity:1;display:inline" />
  <path
     d="m 2091.3561,750.02554 37.1231,0"
     id="path4091"
     style="color:#000000;fill:#000000;fill-opacity:1;stroke:#000000;stroke-width:15;stroke-linecap:butt;stroke-linejoin:miter;stroke-opacity:1;display:inline" />
  <path
     d="m 1100.4896,360.71109 a 7.5,7.5 0 0 1 -15,0 7.5,7.5 0 1 1 15,0 z"
     id="path3828-9-2"
     style="color:#000000;fill:#000000;fill-opacity:1;stroke:none;stroke-width:7;display:inline" />
  <path
     d="m 1402.6325,423.71109 0,482.88812"
     id="path4178"
     style="color:#000000;fill:#000000;fill-opacity:1;stroke:#000000;stroke-width:2;stroke-linecap:butt;stroke-linejoin:miter;stroke-opacity:1;display:inline" />
  <path
     d="m 1265.7423,370.85395 a 7.5,7.5 0 0 1 -15,0 7.5,7.5 0 1 1 15,0 z"
     id="path3828-9-2-8"
     style="color:#000000;fill:#000000;fill-opacity:1;stroke:none;stroke-width:7;display:inline" />
  <path
     d="m 1421.6325,414.71108 a 7.5,7.5 0 0 1 -15,0 7.5,7.5 0 1 1 15,0 z"
     id="path3828-9-2-7"
     style="color:#000000;fill:#000000;fill-opacity:1;stroke:none;stroke-width:7;display:inline" />
  <path
     d="m 1421.6325,586.85394 a 7.5,7.5 0 0 1 -15,0 7.5,7.5 0 1 1 15,0 z"
     id="path3828-9-2-4"
     style="color:#000000;fill:#000000;fill-opacity:1;stroke:none;stroke-width:7;display:inline" />
  <path
     d="m 1421.6325,751.1397 a 7.5,7.5 0 0 1 -15,0 7.5,7.5 0 1 1 15,0 z"
     id="path3828-9-2-2"
     style="color:#000000;fill:#000000;fill-opacity:1;stroke:none;stroke-width:7;display:inline" />
  <path
     d="m 1399.1299,187.83681 14.4904,-53.20468"
     id="path4219"
     style="color:#000000;fill:none;stroke:#000000;stroke-width:2;stroke-linecap:butt;stroke-linejoin:miter;stroke-opacity:1;display:inline" />
  <path
     d="m 1386.9213,184.77593 14.4904,-53.20468"
     id="path4219-7"
     style="color:#000000;fill:none;stroke:#000000;stroke-width:2;stroke-linecap:butt;stroke-linejoin:miter;stroke-opacity:1;display:inline" />
  <path
     d="m 1374.7128,181.71501 14.4904,-53.20468"
     id="path4219-79"
     style="color:#000000;fill:none;stroke:#000000;stroke-width:2;stroke-linecap:butt;stroke-linejoin:miter;stroke-opacity:1;display:inline" />
  <path
     d="m 1362.5042,178.65401 14.4904,-53.20468"
     id="path4219-3"
     style="color:#000000;fill:none;stroke:#000000;stroke-width:2;stroke-linecap:butt;stroke-linejoin:miter;stroke-opacity:1;display:inline" />
  <path
     d="m 1350.2957,175.59301 14.4904,-53.20468"
     id="path4219-1"
     style="color:#000000;fill:none;stroke:#000000;stroke-width:2;stroke-linecap:butt;stroke-linejoin:miter;stroke-opacity:1;display:inline" />
  <path
     d="m 1338.0871,172.53205 14.4904,-53.20468"
     id="path4219-9"
     style="color:#000000;fill:none;stroke:#000000;stroke-width:2;stroke-linecap:butt;stroke-linejoin:miter;stroke-opacity:1;display:inline" />
  <path
     d="m 1325.8786,169.47111 14.4904,-53.20468"
     id="path4219-8"
     style="color:#000000;fill:none;stroke:#000000;stroke-width:2;stroke-linecap:butt;stroke-linejoin:miter;stroke-opacity:1;display:inline" />
  <path
     d="m 1313.67,166.41012 14.4904,-53.20468"
     id="path4219-6"
     style="color:#000000;fill:none;stroke:#000000;stroke-width:2;stroke-linecap:butt;stroke-linejoin:miter;stroke-opacity:1;display:inline" />
  <path
     d="m 1301.4614,163.34914 14.4904,-53.20468"
     id="path4219-5"
     style="color:#000000;fill:none;stroke:#000000;stroke-width:2;stroke-linecap:butt;stroke-linejoin:miter;stroke-opacity:1;display:inline" />
  <path
     d="m 1423.1708,223.71109 -285.1539,0 0,-73.21291"
     id="path4327"
     style="color:#000000;fill:none;stroke:#000000;stroke-width:2;stroke-linecap:butt;stroke-linejoin:miter;stroke-opacity:1;display:inline" />
  <path
     d="m 1194.9719,51 0,45.72184"
     id="path4335-2"
     style="color:#000000;fill:none;stroke:#000000;stroke-width:2;stroke-linecap:butt;stroke-linejoin:miter;stroke-opacity:1;display:inline" />
  <path
     d="m 1183.9866,51 0,45.72184"
     id="path4335-4"
     style="color:#000000;fill:none;stroke:#000000;stroke-width:2;stroke-linecap:butt;stroke-linejoin:miter;stroke-opacity:1;display:inline" />
  <path
     d="m 1173.0012,51 0,45.72184"
     id="path4335-8"
     style="color:#000000;fill:none;stroke:#000000;stroke-width:2;stroke-linecap:butt;stroke-linejoin:miter;stroke-opacity:1;display:inline" />
  <path
     d="m 1041.3885,149.10735 -0.3571,-51.51778 C 897.6613,95.34495 792.7247,129.74808 685.8149,163.24949 l 0,102.02541 -153.0382,-1.51523 0,-164.65487 -475.2767,0 0,810.14234 309.6117,0 148.9975,0 32.3249,0 0,-156.72159 -23.1574,-0.35715"
     id="path3005-0"
     style="fill:none;stroke:#000000;stroke-width:15;stroke-linecap:butt;stroke-linejoin:miter;stroke-opacity:1" />
  <path
     d="m 1006.2626,262.99681 a 7.5,7.5 0 0 0 15,0 7.5,7.5 0 1 0 -15,0 z"
     id="path3828-4-0"
     style="color:#000000;fill:#000000;fill-opacity:1;stroke:none;stroke-width:7;display:inline" />
  <path
     d="m 847.80839,262.99681 a 7.5,7.5 0 0 0 15,0 7.5,7.5 0 1 0 -15,0 z"
     id="path3828-8-0"
     style="color:#000000;fill:#000000;fill-opacity:1;stroke:none;stroke-width:7;display:inline" />
  <path
     d="m 362.61399,282.23194 a 7.5,7.5 0 0 0 15,0 7.5,7.5 0 1 0 -15,0 z"
     id="path3828-8-8-1"
     style="color:#000000;fill:#000000;fill-opacity:1;stroke:none;stroke-width:7;display:inline" />
  <path
     d="m 362.61399,595.52296 a 7.5,7.5 0 0 0 15,0 7.5,7.5 0 1 0 -15,0 z"
     id="path3828-8-2-38"
     style="color:#000000;fill:#000000;fill-opacity:1;stroke:none;stroke-width:7;display:inline" />
  <path
     d="m 362.61399,438.87745 a 7.5,7.5 0 0 0 15,0 7.5,7.5 0 1 0 -15,0 z"
     id="path3828-8-4-9"
     style="color:#000000;fill:#000000;fill-opacity:1;stroke:none;stroke-width:7;display:inline" />
  <path
     d="m 362.61399,752.1684 a 7.5,7.5 0 0 0 15,0 7.5,7.5 0 1 0 -15,0 z"
     id="path3828-8-5-3"
     style="color:#000000;fill:#000000;fill-opacity:1;stroke:none;stroke-width:7;display:inline" />
  <path
     d="m 370.114,125.58644 0,-26.48181"
     id="path3938-4"
     style="color:#000000;fill:#000000;fill-opacity:1;stroke:#000000;stroke-width:15;stroke-linecap:butt;stroke-linejoin:miter;stroke-opacity:1;display:inline" />
  <path
     d="m 199.95119,282.23194 a 7.5,7.5 0 0 0 15,0 7.5,7.5 0 1 0 -15,0 z"
     id="path3828-8-8-2-6"
     style="color:#000000;fill:#000000;fill-opacity:1;stroke:none;stroke-width:7;display:inline" />
  <path
     d="m 199.95119,595.52296 a 7.5,7.5 0 0 0 15,0 7.5,7.5 0 1 0 -15,0 z"
     id="path3828-8-2-3-0"
     style="color:#000000;fill:#000000;fill-opacity:1;stroke:none;stroke-width:7;display:inline" />
  <path
     d="m 199.95119,438.87745 a 7.5,7.5 0 0 0 15,0 7.5,7.5 0 1 0 -15,0 z"
     id="path3828-8-4-2-6"
     style="color:#000000;fill:#000000;fill-opacity:1;stroke:none;stroke-width:7;display:inline" />
  <path
     d="m 199.95119,752.1684 a 7.5,7.5 0 0 0 15,0 7.5,7.5 0 1 0 -15,0 z"
     id="path3828-8-5-2-6"
     style="color:#000000;fill:#000000;fill-opacity:1;stroke:none;stroke-width:7;display:inline" />
  <path
     d="m 207.4512,125.58644 0,-26.48181"
     id="path3938-1-1"
     style="color:#000000;fill:#000000;fill-opacity:1;stroke:#000000;stroke-width:15;stroke-linecap:butt;stroke-linejoin:miter;stroke-opacity:1;display:inline" />
  <path
     d="m 525.2767,438.87745 23.4099,0 0,156.64551 -23.4099,0"
     id="path4026-8"
     style="fill:none;stroke:#000000;stroke-width:15;stroke-linecap:butt;stroke-linejoin:miter;stroke-opacity:1" />
  <path
     d="m 94.6231,909.24714 0,-810.14234"
     id="path4077-7"
     style="color:#000000;fill:#000000;fill-opacity:1;stroke:#000000;stroke-width:7;stroke-linecap:butt;stroke-linejoin:miter;stroke-opacity:1;display:inline" />
  <path
     d="m 94.6231,282.23194 -37.1231,0"
     id="path4085-8"
     style="color:#000000;fill:#000000;fill-opacity:1;stroke:#000000;stroke-width:15;stroke-linecap:butt;stroke-linejoin:miter;stroke-opacity:1;display:inline" />
  <path
     d="m 94.6231,438.87745 -37.1231,0"
     id="path4087-8"
     style="color:#000000;fill:#000000;fill-opacity:1;stroke:#000000;stroke-width:15;stroke-linecap:butt;stroke-linejoin:miter;stroke-opacity:1;display:inline" />
  <path
     d="m 94.6231,595.52296 -37.1231,0"
     id="path4089-2"
     style="color:#000000;fill:#000000;fill-opacity:1;stroke:#000000;stroke-width:15;stroke-linecap:butt;stroke-linejoin:miter;stroke-opacity:1;display:inline" />
  <path
     d="m 94.6231,752.1684 -37.1231,0"
     id="path4091-9"
     style="color:#000000;fill:#000000;fill-opacity:1;stroke:#000000;stroke-width:15;stroke-linecap:butt;stroke-linejoin:miter;stroke-opacity:1;display:inline" />
  <path
     d="m 783.3467,425.85395 0,482.88812"
     id="path4178-5"
     style="color:#000000;fill:#000000;fill-opacity:1;stroke:#000000;stroke-width:2;stroke-linecap:butt;stroke-linejoin:miter;stroke-opacity:1;display:inline" />
  <path
     d="m 920.23689,372.99681 a 7.5,7.5 0 0 0 15,0 7.5,7.5 0 1 0 -15,0 z"
     id="path3828-9-2-8-9"
     style="color:#000000;fill:#000000;fill-opacity:1;stroke:none;stroke-width:7;display:inline" />
  <path
     d="m 764.34669,416.85394 a 7.5,7.5 0 0 0 15,0 7.5,7.5 0 1 0 -15,0 z"
     id="path3828-9-2-7-8"
     style="color:#000000;fill:#000000;fill-opacity:1;stroke:none;stroke-width:7;display:inline" />
  <path
     d="m 764.34669,588.9968 a 7.5,7.5 0 0 0 15,0 7.5,7.5 0 1 0 -15,0 z"
     id="path3828-9-2-4-4"
     style="color:#000000;fill:#000000;fill-opacity:1;stroke:none;stroke-width:7;display:inline" />
  <path
     d="m 764.34669,753.2825 a 7.5,7.5 0 0 0 15,0 7.5,7.5 0 1 0 -15,0 z"
     id="path3828-9-2-2-0"
     style="color:#000000;fill:#000000;fill-opacity:1;stroke:none;stroke-width:7;display:inline" />
  <path
     d="M 786.8493,189.97967 772.3589,136.77499"
     id="path4219-76"
     style="color:#000000;fill:none;stroke:#000000;stroke-width:2;stroke-linecap:butt;stroke-linejoin:miter;stroke-opacity:1;display:inline" />
  <path
     d="M 799.0579,186.91879 784.5675,133.71411"
     id="path4219-7-3"
     style="color:#000000;fill:none;stroke:#000000;stroke-width:2;stroke-linecap:butt;stroke-linejoin:miter;stroke-opacity:1;display:inline" />
  <path
     d="M 811.2664,183.85787 796.776,130.65319"
     id="path4219-79-6"
     style="color:#000000;fill:none;stroke:#000000;stroke-width:2;stroke-linecap:butt;stroke-linejoin:miter;stroke-opacity:1;display:inline" />
  <path
     d="M 823.475,180.79687 808.9846,127.59219"
     id="path4219-3-1"
     style="color:#000000;fill:none;stroke:#000000;stroke-width:2;stroke-linecap:butt;stroke-linejoin:miter;stroke-opacity:1;display:inline" />
  <path
     d="M 835.6835,177.73587 821.1931,124.53119"
     id="path4219-1-5"
     style="color:#000000;fill:none;stroke:#000000;stroke-width:2;stroke-linecap:butt;stroke-linejoin:miter;stroke-opacity:1;display:inline" />
  <path
     d="M 847.8921,174.67491 833.4017,121.47023"
     id="path4219-9-4"
     style="color:#000000;fill:none;stroke:#000000;stroke-width:2;stroke-linecap:butt;stroke-linejoin:miter;stroke-opacity:1;display:inline" />
  <path
     d="M 860.1006,171.61397 845.6102,118.40929"
     id="path4219-8-2"
     style="color:#000000;fill:none;stroke:#000000;stroke-width:2;stroke-linecap:butt;stroke-linejoin:miter;stroke-opacity:1;display:inline" />
  <path
     d="M 872.3092,168.55298 857.8188,115.3483"
     id="path4219-6-0"
     style="color:#000000;fill:none;stroke:#000000;stroke-width:2;stroke-linecap:butt;stroke-linejoin:miter;stroke-opacity:1;display:inline" />
  <path
     d="M 884.5178,165.492 870.0274,112.28732"
     id="path4219-5-9"
     style="color:#000000;fill:none;stroke:#000000;stroke-width:2;stroke-linecap:butt;stroke-linejoin:miter;stroke-opacity:1;display:inline" />
  <path
     d="m 991.0073,53.14286 0,45.72184"
     id="path4335-2-7"
     style="color:#000000;fill:none;stroke:#000000;stroke-width:2;stroke-linecap:butt;stroke-linejoin:miter;stroke-opacity:1;display:inline" />
  <path
     d="m 1001.9926,53.14286 0,45.72184"
     id="path4335-4-2"
     style="color:#000000;fill:none;stroke:#000000;stroke-width:2;stroke-linecap:butt;stroke-linejoin:miter;stroke-opacity:1;display:inline" />
  <path
     d="m 1012.978,53.14286 0,45.72184"
     id="path4335-8-6"
     style="color:#000000;fill:none;stroke:#000000;stroke-width:2;stroke-linecap:butt;stroke-linejoin:miter;stroke-opacity:1;display:inline" />
  <path
     d="m 521.9937,595.52296 -144.37974,0"
     id="path4679"
     style="fill:none;stroke:#000000;stroke-width:10;stroke-linecap:butt;stroke-linejoin:miter;stroke-opacity:1" />
  <path
     d="m 370.11396,744.6684 0,-141.64544"
     id="path4698"
     style="fill:none;stroke:#000000;stroke-width:10;stroke-linecap:butt;stroke-linejoin:miter;stroke-opacity:1" />
  <path
     d="m 199.95116,595.52296 -105.32806,0"
     id="path4712"
     style="fill:none;stroke:#000000;stroke-width:10;stroke-linecap:butt;stroke-linejoin:miter;stroke-opacity:1" />
  <path
     d="m 1205.9574,96.72184 0,-45.72184 -225.9356,2.14286 0,45.72184"
     id="path4769"
     style="color:#000000;fill:none;stroke:#000000;stroke-width:2;stroke-linecap:butt;stroke-linejoin:miter;stroke-opacity:1;display:inline" />
  <path
     d="m 762.80838,223.71109 0,-28.57143 c 59.1056,-22.21707 218.92492,-47.65827 278.58012,-48.17517"
     id="path3775-2"
     style="color:#000000;fill:none;stroke:#000000;stroke-width:7;stroke-linecap:butt;stroke-linejoin:miter;stroke-opacity:1;display:inline" />
  <path
     d="m 786.84928,187.83681 -14.4904,-53.20472"
     id="path4219-0"
     style="color:#000000;fill:none;stroke:#000000;stroke-width:2;stroke-linecap:butt;stroke-linejoin:miter;stroke-opacity:1;display:inline" />
  <path
     d="m 799.05788,184.77593 -14.4904,-53.20464"
     id="path4219-7-1"
     style="color:#000000;fill:none;stroke:#000000;stroke-width:2;stroke-linecap:butt;stroke-linejoin:miter;stroke-opacity:1;display:inline" />
  <path
     d="m 811.26638,181.71501 -14.4904,-53.20472"
     id="path4219-79-4"
     style="color:#000000;fill:none;stroke:#000000;stroke-width:2;stroke-linecap:butt;stroke-linejoin:miter;stroke-opacity:1;display:inline" />
  <path
     d="m 823.47498,178.65401 -14.4904,-53.20472"
     id="path4219-3-6"
     style="color:#000000;fill:none;stroke:#000000;stroke-width:2;stroke-linecap:butt;stroke-linejoin:miter;stroke-opacity:1;display:inline" />
  <path
     d="m 835.68348,175.59299 -14.4904,-53.2047"
     id="path4219-1-0"
     style="color:#000000;fill:none;stroke:#000000;stroke-width:2;stroke-linecap:butt;stroke-linejoin:miter;stroke-opacity:1;display:inline" />
  <path
     d="m 847.89208,172.53209 -14.4904,-53.2047"
     id="path4219-9-7"
     style="color:#000000;fill:none;stroke:#000000;stroke-width:2;stroke-linecap:butt;stroke-linejoin:miter;stroke-opacity:1;display:inline" />
  <path
     d="m 860.10058,169.47109 -14.4904,-53.2047"
     id="path4219-8-1"
     style="color:#000000;fill:none;stroke:#000000;stroke-width:2;stroke-linecap:butt;stroke-linejoin:miter;stroke-opacity:1;display:inline" />
  <path
     d="m 872.30918,166.41009 -14.4904,-53.2046"
     id="path4219-6-7"
     style="color:#000000;fill:none;stroke:#000000;stroke-width:2;stroke-linecap:butt;stroke-linejoin:miter;stroke-opacity:1;display:inline" />
  <path
     d="m 884.51778,163.34919 -14.4904,-53.2047"
     id="path4219-5-7"
     style="color:#000000;fill:none;stroke:#000000;stroke-width:2;stroke-linecap:butt;stroke-linejoin:miter;stroke-opacity:1;display:inline" />
  <path
     d="m 762.80838,223.71109 285.15392,0 0,-73.2129"
     id="path4327-7"
     style="color:#000000;fill:none;stroke:#000000;stroke-width:2;stroke-linecap:butt;stroke-linejoin:miter;stroke-opacity:1;display:inline" />
  <path
     d="m 285.37436,908.78181 0,98.94209 c -90.35608,35.2869 -154.40625,123.1488 -154.40625,226 0,49.7928 15.00491,96.0798 40.73929,134.5887 m 67.3683,67.3192 c 38.49199,25.6831 84.74171,40.6546 134.48616,40.6546 102.85701,0 190.6858,-64.0421 225.96875,-154.4063 l 108.5348,0"
     id="path6196"
     style="color:#000000;fill:none;stroke:#000000;stroke-width:2;stroke-linecap:butt;stroke-linejoin:miter;stroke-opacity:1;display:inline" />
  <path
     d="m 180.78372,1359.0438 c -23.48503,-36.0495 -37.13176,-79.0947 -37.13176,-125.3273 0,-104.4963 69.71619,-192.7095 165.17373,-220.6648 m 285.26969,285.816 c -28.09148,95.2408 -116.19856,164.7514 -220.54072,164.7514 -45.54077,0 -87.98886,-13.2414 -123.70425,-36.084"
     id="path4905"
     style="color:#000000;fill:none;stroke:#000000;stroke-width:2;stroke-linecap:butt;stroke-linejoin:miter;stroke-opacity:1;display:inline" />
  <path
     d="m 536.12044,1233.7165 a 162.56578,162.56578 0 0 1 -325.13156,0 162.56578,162.56578 0 1 1 325.13156,0 z"
     id="path4907"
     style="color:#000000;fill:none;stroke:#000000;stroke-width:2;stroke-linecap:butt;stroke-linejoin:miter;stroke-opacity:1;stroke-dasharray:16, 16;display:inline" />
  <path
     d="m 59.35317,1232.6142 a 7.5,7.5 0 0 0 15,0 7.5,7.5 0 1 0 -15,0 z"
     id="path3828-9-2-7-8-9-65"
     style="color:#000000;fill:#000000;fill-opacity:1;stroke:none;stroke-width:7;display:inline" />
  <path
     d="m 129.85129,1234.1467 a 7.5,7.5 0 0 0 15,0 7.5,7.5 0 1 0 -15,0 z"
     id="path3828-9-2-7-8-98-3"
     style="color:#000000;fill:#000000;fill-opacity:1;stroke:none;stroke-width:7;display:inline" />
  <path
     d="m 82.848485,1352.9377 a 7.5,7.5 0 1 0 13.858193,-5.7402 7.5,7.5 0 0 0 -13.858193,5.7402 z"
     id="path3828-9-2-7-8-9-65-1"
     style="color:#000000;fill:#000000;fill-opacity:1;stroke:none;stroke-width:7;display:inline" />
  <path
     d="m 148.56669,1327.3751 a 7.5,7.5 0 1 0 13.85819,-5.7402 7.5,7.5 0 1 0 -13.85819,5.7402 z"
     id="path3828-9-2-7-8-98-3-1"
     style="color:#000000;fill:#000000;fill-opacity:1;stroke:none;stroke-width:7;display:inline" />
  <path
     d="m 209.03599,1303.1574 a 7.5,7.5 0 1 0 13.85819,-5.7402 7.5,7.5 0 1 0 -13.85819,5.7402 z"
     id="path3828-9-2-7-8-1-9-9"
     style="color:#000000;fill:#000000;fill-opacity:1;stroke:none;stroke-width:7;display:inline" />
  <path
     d="m 538.989,1166.4863 a 7.5000079,7.5000079 0 1 1 -13.85819,5.7403 7.5000079,7.5000079 0 0 1 13.85819,-5.7403 z"
     id="path3828-9-2-7-8-1-0-1-2"
     style="color:#000000;fill:#000000;fill-opacity:1;stroke:none;stroke-width:7;display:inline" />
  <path
     d="m 252.29649,1523.579 a 7.500003,7.500003 0 1 0 5.74025,-13.8582 7.500003,7.500003 0 0 0 -5.74025,13.8582 z"
     id="path3828-9-2-7-8-9-65-1-2-9"
     style="color:#000000;fill:#000000;fill-opacity:1;stroke:none;stroke-width:7;display:inline" />
  <path
     d="m 280.69083,1459.0337 a 7.500003,7.500003 0 0 0 5.74025,-13.8582 7.500003,7.500003 0 1 0 -5.74025,13.8582 z"
     id="path3828-9-2-7-8-98-3-1-0-5"
     style="color:#000000;fill:#000000;fill-opacity:1;stroke:none;stroke-width:7;display:inline" />
  <path
     d="m 306.32453,1399.1509 a 7.500003,7.500003 0 1 0 5.74025,-13.8582 7.500003,7.500003 0 0 0 -5.74025,13.8582 z"
     id="path3828-9-2-7-8-1-9-9-0-3"
     style="color:#000000;fill:#000000;fill-opacity:1;stroke:none;stroke-width:7;display:inline" />
  <path
     d="m 442.99552,1069.1978 a 7.500003,7.500003 0 1 1 -5.74025,13.8582 7.500003,7.500003 0 0 1 5.74025,-13.8582 z"
     id="path3828-9-2-7-8-1-0-1-2-1-2"
     style="color:#000000;fill:#000000;fill-opacity:1;stroke:none;stroke-width:7;display:inline" />
  <path
     d="m 374.65699,1547.9181 a 7.5,7.5 0 1 1 0,-15 7.5,7.5 0 0 1 0,15 z"
     id="path3828-9-2-7-8-9-6-24-2"
     style="color:#000000;fill:#000000;fill-opacity:1;stroke:none;stroke-width:7;display:inline" />
  <path
     d="m 373.12442,1477.42 a 7.5,7.5 0 1 1 0,-15 7.5,7.5 0 0 1 0,15 z"
     id="path3828-9-2-7-8-98-6-6-5"
     style="color:#000000;fill:#000000;fill-opacity:1;stroke:none;stroke-width:7;display:inline" />
  <path
     d="m 304.11373,1069.1979 a 7.500003,7.500003 0 1 0 5.74025,13.8582 7.500003,7.500003 0 0 0 -5.74025,-13.8582 z"
     id="path3828-9-2-7-8-1-9-9-5"
     style="color:#000000;fill:#000000;fill-opacity:1;stroke:none;stroke-width:7;display:inline" />
  <path
     d="m 494.81282,1523.579 a 7.500003,7.500003 0 0 1 -5.74025,-13.8582 7.500003,7.500003 0 1 1 5.74025,13.8582 z"
     id="path3828-9-2-7-8-9-6-24-7-0"
     style="color:#000000;fill:#000000;fill-opacity:1;stroke:none;stroke-width:7;display:inline" />
  <path
     d="m 466.41842,1459.0337 a 7.500003,7.500003 0 1 1 -5.74025,-13.8582 7.500003,7.500003 0 0 1 5.74025,13.8582 z"
     id="path3828-9-2-7-8-98-6-6-6-8"
     style="color:#000000;fill:#000000;fill-opacity:1;stroke:none;stroke-width:7;display:inline" />
  <path
     d="m 440.78472,1399.1509 a 7.500003,7.500003 0 1 1 -5.74025,-13.8582 7.500003,7.500003 0 0 1 5.74025,13.8582 z"
     id="path3828-9-2-7-8-1-0-1-2-3"
     style="color:#000000;fill:#000000;fill-opacity:1;stroke:none;stroke-width:7;display:inline" />
  <path
     d="m 152.1601,1010.7631 a 7.5,7.5 0 1 0 10.6066,10.6066 7.5,7.5 0 1 0 -10.6066,-10.6066 z"
     id="path3828-9-2-7-8-9-65-1-2-96"
     style="color:#000000;fill:#000000;fill-opacity:1;stroke:none;stroke-width:7;display:inline" />
  <path
     d="m 200.92612,1061.6964 a 7.5,7.5 0 1 0 10.6066,10.6066 7.5,7.5 0 1 0 -10.6066,-10.6066 z"
     id="path3828-9-2-7-8-98-3-1-0-7"
     style="color:#000000;fill:#000000;fill-opacity:1;stroke:none;stroke-width:7;display:inline" />
  <path
     d="m 596.50809,1455.1111 a 7.5,7.5 0 0 1 -10.6066,-10.6066 7.5,7.5 0 1 1 10.6066,10.6066 z"
     id="path3828-9-2-7-8-9-6-24-7-3-9"
     style="color:#000000;fill:#000000;fill-opacity:1;stroke:none;stroke-width:7;display:inline" />
  <path
     d="m 545.57469,1406.3451 a 7.5,7.5 0 0 1 -10.6066,-10.6066 7.5,7.5 0 1 1 10.6066,10.6066 z"
     id="path3828-9-2-7-8-98-6-6-6-9-7"
     style="color:#000000;fill:#000000;fill-opacity:1;stroke:none;stroke-width:7;display:inline" />
  <path
     d="m 83.692145,1112.4583 a 7.5000093,7.5000093 0 1 0 13.858193,5.7403 7.5000093,7.5000093 0 1 0 -13.858193,-5.7403 z"
     id="path3828-9-2-7-8-9-65-1-2-9-5"
     style="color:#000000;fill:#000000;fill-opacity:1;stroke:none;stroke-width:7;display:inline" />
  <path
     d="m 148.23743,1140.8526 a 7.5000079,7.5000079 0 1 0 13.85819,5.7403 7.5000079,7.5000079 0 1 0 -13.85819,-5.7403 z"
     id="path3828-9-2-7-8-98-3-1-0-5-7"
     style="color:#000000;fill:#000000;fill-opacity:1;stroke:none;stroke-width:7;display:inline" />
  <path
     d="m 208.12023,1166.4864 a 7.5000079,7.5000079 0 1 0 13.85819,5.7403 7.5000079,7.5000079 0 1 0 -13.85819,-5.7403 z"
     id="path3828-9-2-7-8-1-9-9-0-3-6"
     style="color:#000000;fill:#000000;fill-opacity:1;stroke:none;stroke-width:7;display:inline" />
  <path
     d="m 538.07326,1303.1574 a 7.5,7.5 0 1 1 -13.85819,-5.7402 7.5,7.5 0 0 1 13.85819,5.7402 z"
     id="path3828-9-2-7-8-1-0-1-2-1-2-8"
     style="color:#000000;fill:#000000;fill-opacity:1;stroke:none;stroke-width:7;display:inline" />
  <path
     d="m 708.06541,1459.0496 -113.5145,-1.7422 c -127.3833,128.6664 -311.22521,100.4927 -395.21179,38.1384 l -42.69384,42.6938 C 122.48637,1514.012 95.25042,1486.4032 69.29951,1450.861 l 42.68724,-42.6872 C 36.85762,1301.5954 34.05933,1132.7573 149.93229,1012.752 l 0.0506,-103.50489"
     id="path6094"
     style="color:#000000;fill:none;stroke:#000000;stroke-width:2;stroke-linecap:butt;stroke-linejoin:miter;stroke-opacity:1;display:inline" />
  <path
     d="m 243.96811,1430.4739 c 11.47555,7.1824 21.98692,13.1967 32.84366,18.1001 m 268.19385,-53.2543 c 17.65948,-18.7289 32.28373,-40.3513 43.08666,-64.081 2.08264,-4.5747 4.02326,-9.2278 5.81623,-13.9535 4.06908,-10.725 7.37767,-21.8243 9.85992,-33.2322 m 0.29767,-99.2713 c -5.78111,-27.3678 -16.31209,-52.9842 -30.69003,-75.9455"
     id="path6126"
     style="color:#000000;fill:#000000;fill-opacity:1;stroke:#000000;stroke-width:15;stroke-linecap:butt;stroke-linejoin:miter;stroke-opacity:1;display:inline" />
  <path
     d="m 248.07208,1426.3861 -65.08912,65.0891 10.16336,10.1634"
     id="path6128"
     style="color:#000000;fill:none;stroke:#000000;stroke-width:2;stroke-linecap:butt;stroke-linejoin:miter;stroke-opacity:1;display:inline" />
  <path
     d="m 180.88499,1359.1991 -65.08911,65.0891 -9.96175,-9.9618"
     id="path6130"
     style="color:#000000;fill:none;stroke:#000000;stroke-width:2;stroke-linecap:butt;stroke-linejoin:miter;stroke-opacity:1;display:inline" />
  <path
     d="m 176.7973,1363.303 c -7.1824,-11.4755 -13.1967,-21.9869 -18.1001,-32.8436 m 53.2543,-268.1939 c 18.7289,-17.6595 40.3513,-32.2837 64.081,-43.0866 4.5747,-2.0827 9.2278,-4.0233 13.9535,-5.8163 10.725,-4.0691 21.8243,-7.3776 33.2322,-9.8599 m 99.2713,-0.2977 c 27.3678,5.7811 52.9842,16.3121 75.9455,30.6901"
     id="path6126-6"
     style="fill:none;stroke:#000000;stroke-width:15;stroke-linecap:butt;stroke-linejoin:miter;stroke-opacity:1" />
  <path
     d="m 700.56186,1064.5364 0,505.75 585.76594,0.1089 -7.1977,-15.4355 -563.56824,0.3266 0,-490.75 z"
     id="path6224"
     style="font-size:medium;font-style:normal;font-variant:normal;font-weight:normal;font-stretch:normal;text-indent:0;text-align:start;text-decoration:none;line-height:normal;letter-spacing:normal;word-spacing:normal;text-transform:none;direction:ltr;block-progression:tb;writing-mode:lr-tb;text-anchor:start;baseline-shift:baseline;color:#000000;fill:#000000;fill-opacity:1;stroke:none;stroke-width:15;display:inline;font-family:Sans;-inkscape-font-specification:Sans" />
  <path
     d="m 865.69433,1070.8762 a 7.5,7.5 0 0 1 -13.85819,-5.7402 7.5,7.5 0 1 1 13.85819,5.7402 z"
     id="path3828-9-2-7-8-1-0-1-2-1-2-8-6"
     style="color:#000000;fill:#000000;fill-opacity:1;fill-rule:nonzero;stroke:none;stroke-width:7;display:inline" />
  <path
     d="m 1026.8473,1070.8762 a 7.5,7.5 0 0 1 -13.8582,-5.7402 7.5,7.5 0 1 1 13.8582,5.7402 z"
     id="path3828-9-2-7-8-1-0-1-2-1-2-8-3"
     style="color:#000000;fill:#000000;fill-opacity:1;fill-rule:nonzero;stroke:none;stroke-width:7;display:inline" />
  <path
     d="m 865.69434,1231.1581 a 7.5,7.5 0 1 1 -13.85819,-5.7402 7.5,7.5 0 0 1 13.85819,5.7402 z"
     id="path3828-9-2-7-8-1-0-1-2-1-2-8-6-2"
     style="color:#000000;fill:#000000;fill-opacity:1;fill-rule:nonzero;stroke:none;stroke-width:7;display:inline" />
  <path
     d="m 1026.8473,1231.1581 a 7.5,7.5 0 0 1 -13.8582,-5.7402 7.5,7.5 0 1 1 13.8582,5.7402 z"
     id="path3828-9-2-7-8-1-0-1-2-1-2-8-3-5"
     style="color:#000000;fill:#000000;fill-opacity:1;fill-rule:nonzero;stroke:none;stroke-width:7;display:inline" />
  <path
     d="m 1188.0003,1231.1581 a 7.5,7.5 0 1 1 -13.8582,-5.7402 7.5,7.5 0 0 1 13.8582,5.7402 z"
     id="path3828-9-2-7-8-1-0-1-2-1-2-8-35-3"
     style="color:#000000;fill:#000000;fill-opacity:1;fill-rule:nonzero;stroke:none;stroke-width:7;display:inline" />
  <path
     d="m 1349.1534,1231.1581 a 7.5,7.5 0 0 1 -13.8582,-5.7402 7.5,7.5 0 0 1 13.8582,5.7402 z"
     id="path3828-9-2-7-8-1-0-1-2-1-2-8-5-6"
     style="color:#000000;fill:#000000;fill-opacity:1;fill-rule:nonzero;stroke:none;stroke-width:7;display:inline" />
  <path
     d="m 1510.3063,1231.1581 a 7.5,7.5 0 0 1 -13.8582,-5.7402 7.5,7.5 0 0 1 13.8582,5.7402 z"
     id="path3828-9-2-7-8-1-0-1-2-1-2-8-32-1"
     style="color:#000000;fill:#000000;fill-opacity:1;fill-rule:nonzero;stroke:none;stroke-width:7;display:inline" />
  <path
     d="m 866.56543,1391.44 a 7.5,7.5 0 1 1 -13.85819,-5.7402 7.5,7.5 0 0 1 13.85819,5.7402 z"
     id="path3828-9-2-7-8-1-0-1-2-1-2-8-6-21"
     style="color:#000000;fill:#000000;fill-opacity:1;fill-rule:nonzero;stroke:none;stroke-width:7;display:inline" />
  <path
     d="m 1027.7184,1391.44 a 7.5,7.5 0 0 1 -13.8582,-5.7402 7.5,7.5 0 0 1 13.8582,5.7402 z"
     id="path3828-9-2-7-8-1-0-1-2-1-2-8-3-4"
     style="color:#000000;fill:#000000;fill-opacity:1;fill-rule:nonzero;stroke:none;stroke-width:7;display:inline" />
  <path
     d="m 1188.8714,1391.44 a 7.5,7.5 0 0 1 -13.8582,-5.7402 7.5,7.5 0 0 1 13.8582,5.7402 z"
     id="path3828-9-2-7-8-1-0-1-2-1-2-8-35-6"
     style="color:#000000;fill:#000000;fill-opacity:1;fill-rule:nonzero;stroke:none;stroke-width:7;display:inline" />
  <path
     d="m 1350.0245,1391.44 a 7.5,7.5 0 0 1 -13.8582,-5.7402 7.5,7.5 0 1 1 13.8582,5.7402 z"
     id="path3828-9-2-7-8-1-0-1-2-1-2-8-5-2"
     style="color:#000000;fill:#000000;fill-opacity:1;fill-rule:nonzero;stroke:none;stroke-width:7;display:inline" />
  <path
     d="m 1511.1774,1391.44 a 7.5,7.5 0 0 1 -13.8582,-5.7402 7.5,7.5 0 0 1 13.8582,5.7402 z"
     id="path3828-9-2-7-8-1-0-1-2-1-2-8-32-9"
     style="color:#000000;fill:#000000;fill-opacity:1;fill-rule:nonzero;stroke:none;stroke-width:7;display:inline" />
  <path
     d="m 1182.0617,1428.9554 0,133.834"
     id="path6445"
     style="color:#000000;fill:none;stroke:#000000;stroke-width:7;stroke-linecap:butt;stroke-linejoin:miter;stroke-opacity:1;display:inline" />
  <path
     d="m 1182.0617,1520.9767 -418.24607,0 0,-292.6887 -55.75022,0"
     id="path6476"
     style="color:#000000;fill:none;stroke:#000000;stroke-width:7;stroke-linecap:butt;stroke-linejoin:miter;stroke-opacity:1;display:inline" />
  <path
     d="m 859.30311,1520.9767 0,41.8127"
     id="path6480"
     style="color:#000000;fill:#000000;fill-opacity:1;fill-rule:nonzero;stroke:#000000;stroke-width:15;stroke-linecap:butt;stroke-linejoin:miter;stroke-opacity:1;display:inline" />
  <path
     d="m 1020.6113,1520.982 0,41.8127"
     id="path6480-4"
     style="color:#000000;fill:#000000;fill-opacity:1;fill-rule:nonzero;stroke:#000000;stroke-width:15;stroke-linecap:butt;stroke-linejoin:miter;stroke-opacity:1;display:inline" />
  <path
     d="m 1036.1699,1264.8605 -52.9192,-52.9192 -79.9232,0 -59.3435,59.3435 0,77.201 57.1114,57.1113 81.502,0 51.6397,-51.6397"
     id="path6570"
     style="fill:none;stroke:#000000;stroke-width:7;stroke-linecap:butt;stroke-linejoin:miter;stroke-opacity:1" />
  <path
     d="m 1503.3772,1211.1875 0,-143.1814 -321.4349,0 0,18.1701 -28.9782,0"
     id="path6669"
     style="fill:none;stroke:#000000;stroke-width:15;stroke-linecap:butt;stroke-linejoin:miter;stroke-opacity:1" />
  <path
     d="m 990.942,1068.0061 0,18.1701 28.9782,0"
     id="path6673"
     style="color:#000000;fill:none;stroke:#000000;stroke-width:15;stroke-linecap:square;stroke-linejoin:miter;stroke-opacity:1;display:inline" />
  <path
     d="m 887.74147,1068.0061 0,18.1701 -179.67607,0.154"
     id="path6673-5"
     style="color:#000000;fill:none;stroke:#000000;stroke-width:15;stroke-linecap:square;stroke-linejoin:miter;stroke-opacity:1;display:inline" />
  <rect
     width="68.371429"
     height="70.219299"
     x="905.15601"
     y="1040.7473"
     id="rect6733"
     style="color:#000000;fill:none;stroke:#000000;stroke-width:2;stroke-linecap:square;stroke-linejoin:miter;stroke-opacity:1;display:inline;filter:url(#filter4740-4)" />
  <path
     d="m 1345.074,1696.3769 181.2615,-84.5237"
     id="path6739"
     style="fill:none;stroke:#000000;stroke-width:15;stroke-linecap:butt;stroke-linejoin:miter;stroke-opacity:1" />
  <path
     d="m 1526.3355,1611.8532 -22.4786,-48.2054 -62.045,-133.0561 -181.2616,84.5236 84.5237,181.2616"
     id="path6743"
     style="fill:none;stroke:#000000;stroke-width:1px;stroke-linecap:butt;stroke-linejoin:miter;stroke-opacity:1" />
  <path
     d="m 1651.8119,1220.4427 0,334.8437 -151.9047,-0.1089 7.1977,15.4356 c 53.2357,-0.048 106.4713,-0.3267 159.707,-0.3267 0,-116.6146 0,-233.2291 0,-349.8437 z"
     id="path6749"
     style="font-size:medium;font-style:normal;font-variant:normal;font-weight:normal;font-stretch:normal;text-indent:0;text-align:start;text-decoration:none;line-height:normal;letter-spacing:normal;word-spacing:normal;text-transform:none;direction:ltr;block-progression:tb;writing-mode:lr-tb;text-anchor:start;baseline-shift:baseline;color:#000000;fill:#000000;fill-opacity:1;stroke:none;stroke-width:15;display:inline;font-family:Sans;-inkscape-font-specification:Sans" />
  <path
     d="m 1023.8093,1092.6223 131.9871,0 0,-13.0039 -131.6289,0"
     id="path6776"
     style="fill:none;stroke:#000000;stroke-width:2;stroke-linecap:butt;stroke-linejoin:miter;stroke-opacity:1" />
  <path
     d="m 1737.3546,1552.3995 a 7.5,7.5 0 1 1 -13.8582,-5.7402 7.5,7.5 0 0 1 13.8582,5.7402 z"
     id="path3828-9-2-7-8-1-0-1-2-1-2-8-32-9-4"
     style="color:#000000;fill:#000000;fill-opacity:1;fill-rule:nonzero;stroke:none;stroke-width:7;display:inline" />
  <path
     d="m 1907.8883,1552.3995 a 7.5,7.5 0 1 1 -13.8582,-5.7402 7.5,7.5 0 0 1 13.8582,5.7402 z"
     id="path3828-9-2-7-8-1-0-1-2-1-2-8-32-9-44"
     style="color:#000000;fill:#000000;fill-opacity:1;fill-rule:nonzero;stroke:none;stroke-width:7;display:inline" />
  <path
     d="m 2078.4221,1552.3995 a 7.5,7.5 0 0 1 -13.8582,-5.7402 7.5,7.5 0 1 1 13.8582,5.7402 z"
     id="path3828-9-2-7-8-1-0-1-2-1-2-8-32-9-42"
     style="color:#000000;fill:#000000;fill-opacity:1;fill-rule:nonzero;stroke:none;stroke-width:7;display:inline" />
  <path
     d="m 2148.8151,1481.9253 a 7.5,7.5 0 0 1 -13.8582,-5.7402 7.5,7.5 0 1 1 13.8582,5.7402 z"
     id="path3828-9-2-7-8-1-0-1-2-1-2-8-32-9-9"
     style="color:#000000;fill:#000000;fill-opacity:1;fill-rule:nonzero;stroke:none;stroke-width:7;display:inline" />
  <path
     d="m 2148.8151,1310.7939 a 7.5,7.5 0 0 1 -13.8582,-5.7402 7.5,7.5 0 1 1 13.8582,5.7402 z"
     id="path3828-9-2-7-8-1-0-1-2-1-2-8-32-9-3"
     style="color:#000000;fill:#000000;fill-opacity:1;fill-rule:nonzero;stroke:none;stroke-width:7;display:inline" />
  <path
     d="m 2148.815,1139.6626 a 7.5,7.5 0 1 1 -13.8582,-5.7402 7.5,7.5 0 0 1 13.8582,5.7402 z"
     id="path3828-9-2-7-8-1-0-1-2-1-2-8-32-9-0"
     style="color:#000000;fill:#000000;fill-opacity:1;fill-rule:nonzero;stroke:none;stroke-width:7;display:inline" />
  <path
     d="m 2148.888,1021.0982 0.081,535.4331 -482.1573,0"
     id="path6835"
     style="color:#000000;fill:none;stroke:#000000;stroke-width:2;stroke-linecap:butt;stroke-linejoin:miter;stroke-opacity:1;stroke-dasharray:16, 16;display:inline" />
  <path
     d="m 2073.9249,1021.0982 0.07,460.459 -418.0287,0"
     id="path6835-7"
     style="fill:none;stroke:#000000;stroke-width:10;stroke-linecap:butt;stroke-linejoin:miter;stroke-opacity:1;display:inline" />
  <path
     d="m 1785.5637,1549.5294 60.2573,0"
     id="path6855"
     style="fill:none;stroke:#000000;stroke-width:10;stroke-linecap:butt;stroke-linejoin:miter;stroke-opacity:1" />
  <path
     d="m 1956.0975,1549.5294 60.2573,0"
     id="path6855-7"
     style="fill:none;stroke:#000000;stroke-width:10;stroke-linecap:butt;stroke-linejoin:miter;stroke-opacity:1;display:inline" />
  <path
     d="m 2141.886,1363.3609 0,60.2573"
     id="path6855-3"
     style="fill:none;stroke:#000000;stroke-width:10;stroke-linecap:butt;stroke-linejoin:miter;stroke-opacity:1;display:inline" />
  <path
     d="m 2141.886,1192.2295 0,60.2573"
     id="path6855-0"
     style="fill:none;stroke:#000000;stroke-width:10;stroke-linecap:butt;stroke-linejoin:miter;stroke-opacity:1;display:inline" />
  <path
     d="m 2141.886,1021.0982 0,60.2573"
     id="path6855-38"
     style="fill:none;stroke:#000000;stroke-width:10;stroke-linecap:butt;stroke-linejoin:miter;stroke-opacity:1;display:inline" />
  <path
     d="m 1899.0619,1136.8177 -169.4688,169.4687 169.4688,169.4687 169.4374,-169.4687 -169.4374,-169.4687 z"
     id="path6925"
     style="color:#000000;fill:none;stroke:#000000;stroke-width:2;stroke-linecap:butt;stroke-linejoin:miter;stroke-opacity:1;stroke-dasharray:16, 16;display:inline" />
  <path
     d="m 1737.0094,1309.7746 a 7.5,7.5 0 0 1 -13.8582,-5.7402 7.5,7.5 0 0 1 13.8582,5.7402 z"
     id="path3828-9-2-7-8-1-0-1-2-1-2-8-32-9-03"
     style="color:#000000;fill:#000000;fill-opacity:1;fill-rule:nonzero;stroke:none;stroke-width:7;display:inline" />
  <path
     d="m 1906.2201,1140.1284 a 7.5,7.5 0 0 1 -13.8582,-5.7402 7.5,7.5 0 0 1 13.8582,5.7402 z"
     id="path3828-9-2-7-8-1-0-1-2-1-2-8-32-9-7"
     style="color:#000000;fill:#000000;fill-opacity:1;fill-rule:nonzero;stroke:none;stroke-width:7;display:inline" />
  <path
     d="m 1812.8804,1136.3872 -84.0555,0 0,84.0555"
     id="path6999"
     style="fill:none;stroke:#000000;stroke-width:7;stroke-linecap:butt;stroke-linejoin:miter;stroke-opacity:1" />
  <path
     d="m 2073.9249,1024.5982 -261.0445,0 0.6995,52.1345 262.3985,0"
     id="path7001"
     style="fill:none;stroke:#000000;stroke-width:7;stroke-linecap:butt;stroke-linejoin:miter;stroke-opacity:1" />
  <path
     d="m 2077.9249,1021.0982 0,-113.99389"
     id="path7020"
     style="fill:none;stroke:#000000;stroke-width:2;stroke-linecap:butt;stroke-linejoin:miter;stroke-opacity:1" />
  <text
     x="660.12256"
     y="1305.8801"
     id="text7022"
     xml:space="preserve"
     style="font-size:60px;font-style:normal;font-variant:normal;font-weight:bold;font-stretch:normal;text-align:start;line-height:125%;letter-spacing:0px;word-spacing:0px;writing-mode:lr-tb;text-anchor:start;fill:#550000;fill-opacity:1;stroke:none;font-family:Sans;-inkscape-font-specification:Sans Bold"><tspan
       x="660.12256"
       y="1305.8801"
       id="tspan7024">1</tspan></text>
  <text
     x="490.34689"
     y="879.46973"
     id="text7022-9"
     xml:space="preserve"
     style="font-size:60px;font-style:normal;font-variant:normal;font-weight:bold;font-stretch:normal;text-align:start;line-height:125%;letter-spacing:0px;word-spacing:0px;writing-mode:lr-tb;text-anchor:start;fill:#550000;fill-opacity:1;stroke:none;display:inline;font-family:Sans;-inkscape-font-specification:Sans Bold"><tspan
       x="490.34689"
       y="879.46973"
       id="tspan7024-7">2</tspan></text>
  <text
     x="1447.2094"
     y="877.4743"
     id="text7022-5"
     xml:space="preserve"
     style="font-size:60px;font-style:normal;font-variant:normal;font-weight:bold;font-stretch:normal;text-align:start;line-height:125%;letter-spacing:0px;word-spacing:0px;writing-mode:lr-tb;text-anchor:start;fill:#550000;fill-opacity:1;stroke:none;display:inline;font-family:Sans;-inkscape-font-specification:Sans Bold"><tspan
       x="1447.2094"
       y="877.4743"
       id="tspan7024-3">3</tspan></text>
  <text
     x="2041.8499"
     y="880.90997"
     id="text7022-4"
     xml:space="preserve"
     style="font-size:60px;font-style:normal;font-variant:normal;font-weight:bold;font-stretch:normal;text-align:start;line-height:125%;letter-spacing:0px;word-spacing:0px;writing-mode:lr-tb;text-anchor:start;fill:#550000;fill-opacity:1;stroke:none;display:inline;font-family:Sans;-inkscape-font-specification:Sans Bold"><tspan
       x="2041.8499"
       y="880.90997"
       id="tspan7091">4</tspan></text>
  <text
     x="2021.3301"
     y="1457.8328"
     id="text7022-1"
     xml:space="preserve"
     style="font-size:60px;font-style:normal;font-variant:normal;font-weight:bold;font-stretch:normal;text-align:start;line-height:125%;letter-spacing:0px;word-spacing:0px;writing-mode:lr-tb;text-anchor:start;fill:#550000;fill-opacity:1;stroke:none;display:inline;font-family:Sans;-inkscape-font-specification:Sans Bold"><tspan
       x="2021.3301"
       y="1457.8328"
       id="tspan7024-1">5</tspan></text>
  <text
     x="1604.0409"
     y="1537.3459"
     id="text7022-3"
     xml:space="preserve"
     style="font-size:60px;font-style:normal;font-variant:normal;font-weight:bold;font-stretch:normal;text-align:start;line-height:125%;letter-spacing:0px;word-spacing:0px;writing-mode:lr-tb;text-anchor:start;fill:#550000;fill-opacity:1;stroke:none;display:inline;font-family:Sans;-inkscape-font-specification:Sans Bold"><tspan
       x="1604.0409"
       y="1537.3459"
       id="tspan7024-2">6</tspan></text>
  <path
     d="m 2148.969,1663.9145 c 0,17.3106 -14.033,31.3436 -31.3436,31.3436 -17.3106,0 -31.3436,-14.033 -31.3436,-31.3436 0,-17.3106 14.033,-31.3436 31.3436,-31.3436 17.3106,0 31.3436,14.033 31.3436,31.3436 z"
     id="path7099"
     style="fill:none;stroke:#000000;stroke-width:1.99999988;stroke-linecap:butt;stroke-linejoin:miter;stroke-opacity:1" />
  <path
     d="m 2117.6254,1663.7208 -28.2614,13.7648"
     id="path7103"
     style="fill:none;stroke:#000000;stroke-width:7;stroke-linecap:butt;stroke-linejoin:miter;stroke-opacity:1" />
  <path
     d="m 2146.4618,1650.0861 -28.8364,13.6347"
     id="path7105"
     style="fill:none;stroke:#000000;stroke-width:2;stroke-linecap:butt;stroke-linejoin:miter;stroke-opacity:1" />
  <path
     d="m 2131.1013,1692.2214 -26.8022,-56.6846"
     id="path7105-5"
     style="fill:none;stroke:#000000;stroke-width:2;stroke-linecap:butt;stroke-linejoin:miter;stroke-opacity:1" />
</svg>
